# xmcd
#
# Track frame offsets:
#	150
#	15969
#	21504
#	36639
#	53949
#	65641
#	78325
#	88396
#	95533
#	120531
#
# Disc length: 1772 seconds
# Revision: 0
# Processed by: cddbd v1.5.2PL0 Copyright (c) Steve Scherf et al.
# Submitted via: dBpowerAMP V12.0
#
DISCID=8506ea0a
DTITLE=Thomas Ford - Thomas Ford
DYEAR=2010
DGENRE=Blues
TTITLE0=Lightning Seed
TTITLE1=Another Girl
TTITLE2=Death Letter
TTITLE3=Babe, You Tear Me Apart
TTITLE4=good Men Dead Blues
TTITLE5=Love Is A Misunderstanding (Between Two Fools)
TTITLE6=You Got Sick
TTITLE7=When Are You Going To Sing For Me?
TTITLE8=Don't Pay Them No Mind
TTITLE9=I Wouldn't Mind Dying
EXTD=
EXTT0=
EXTT1=
EXTT2=
EXTT3=
EXTT4=
EXTT5=
EXTT6=
EXTT7=
EXTT8=
EXTT9=
PLAYORDER=
